<svg width="192" height="192" viewBox="0 0 192 192" fill="none" xmlns="http://www.w3.org/2000/svg">
<g id="Frame 1597880614">
<g id="Group 1">
<g id="Group 1597880572">
<path id="Rectangle 29" d="M93.0554 2.94461C94.6817 1.31835 97.3183 1.31835 98.9446 2.94461L169.613 73.6132C171.239 75.2394 171.239 77.8761 169.613 79.5024L98.9446 150.171C97.3183 151.797 94.6817 151.797 93.0554 150.171L22.3868 79.5024C20.7606 77.8761 20.7606 75.2394 22.3868 73.6132L93.0554 2.94461Z" fill="url(#paint0_linear_342_730)"/>
<path id="Rectangle 29 (Stroke)" fill-rule="evenodd" clip-rule="evenodd" d="M168.877 74.3493L98.2085 3.68076C96.9888 2.46106 95.0112 2.46106 93.7915 3.68076L23.123 74.3493C21.9033 75.569 21.9033 77.5465 23.123 78.7662L93.7915 149.435C95.0112 150.654 96.9888 150.654 98.2085 149.435L168.877 78.7662C170.097 77.5465 170.097 75.569 168.877 74.3493ZM98.9446 2.94461C97.3183 1.31835 94.6817 1.31835 93.0554 2.94461L22.3868 73.6132C20.7606 75.2394 20.7606 77.8761 22.3868 79.5024L93.0554 150.171C94.6817 151.797 97.3183 151.797 98.9446 150.171L169.613 79.5024C171.239 77.8761 171.239 75.2394 169.613 73.6132L98.9446 2.94461Z" fill="url(#paint1_linear_342_730)"/>
<path id="Rectangle 27" d="M93.0554 41.8289C94.6817 40.2026 97.3183 40.2026 98.9446 41.8289L169.613 112.497C171.239 114.124 171.239 116.76 169.613 118.387L98.9446 189.055C97.3183 190.681 94.6817 190.681 93.0554 189.055L22.3868 118.387C20.7606 116.76 20.7606 114.124 22.3868 112.497L93.0554 41.8289Z" fill="url(#paint2_linear_342_730)"/>
<path id="Rectangle 27 (Stroke)" fill-rule="evenodd" clip-rule="evenodd" d="M168.877 113.234L98.2085 42.565C96.9888 41.3453 95.0112 41.3453 93.7915 42.565L23.123 113.234C21.9033 114.453 21.9033 116.431 23.123 117.651L93.7915 188.319C95.0112 189.539 96.9888 189.539 98.2085 188.319L168.877 117.651C170.097 116.431 170.097 114.453 168.877 113.234ZM98.9446 41.8289C97.3183 40.2026 94.6817 40.2026 93.0554 41.8289L22.3868 112.497C20.7606 114.124 20.7606 116.76 22.3868 118.387L93.0554 189.055C94.6817 190.681 97.3183 190.681 98.9446 189.055L169.613 118.387C171.239 116.76 171.239 114.124 169.613 112.497L98.9446 41.8289Z" fill="url(#paint3_linear_342_730)"/>
<path id="Rectangle 28" d="M93.0554 77.2156C94.6817 75.5893 97.3183 75.5893 98.9446 77.2156L134.228 112.499C135.854 114.125 135.854 116.762 134.228 118.388L98.9446 153.672C97.3183 155.298 94.6817 155.298 93.0554 153.672L57.7719 118.388C56.1456 116.762 56.1456 114.125 57.7719 112.499L93.0554 77.2156Z" fill="url(#paint4_linear_342_730)"/>
<path id="Rectangle 28 (Stroke)" fill-rule="evenodd" clip-rule="evenodd" d="M133.492 113.235L98.2085 77.9518C96.9888 76.7321 95.0112 76.7321 93.7915 77.9518L58.508 113.235C57.2883 114.455 57.2883 116.432 58.508 117.652L93.7915 152.936C95.0112 154.155 96.9888 154.155 98.2085 152.936L133.492 117.652C134.712 116.432 134.712 114.455 133.492 113.235ZM98.9446 77.2156C97.3183 75.5893 94.6817 75.5893 93.0554 77.2156L57.7719 112.499C56.1456 114.125 56.1456 116.762 57.7719 118.388L93.0554 153.672C94.6817 155.298 97.3183 155.298 98.9446 153.672L134.228 118.388C135.854 116.762 135.854 114.125 134.228 112.499L98.9446 77.2156Z" fill="url(#paint5_linear_342_730)"/>
<path id="Ellipse 4" d="M108.65 115.702C108.65 122.756 102.932 128.473 95.8791 128.473C88.8258 128.473 83.1079 122.756 83.1079 115.702C83.1079 108.649 88.8258 102.931 95.8791 102.931C102.932 102.931 108.65 108.649 108.65 115.702Z" fill="url(#paint6_linear_342_730)"/>
<path id="Ellipse 4 (Stroke)" fill-rule="evenodd" clip-rule="evenodd" d="M95.8791 127.432C102.357 127.432 107.609 122.181 107.609 115.702C107.609 109.224 102.357 103.972 95.8791 103.972C89.4007 103.972 84.149 109.224 84.149 115.702C84.149 122.181 89.4007 127.432 95.8791 127.432ZM95.8791 128.473C102.932 128.473 108.65 122.756 108.65 115.702C108.65 108.649 102.932 102.931 95.8791 102.931C88.8258 102.931 83.1079 108.649 83.1079 115.702C83.1079 122.756 88.8258 128.473 95.8791 128.473Z" fill="url(#paint7_linear_342_730)"/>
</g>
</g>
</g>
<defs>
<linearGradient id="paint0_linear_342_730" x1="96.0692" y1="0" x2="96.0692" y2="120.278" gradientUnits="userSpaceOnUse">
<stop stop-color="#9FC8FE"/>
<stop offset="1" stop-color="#5EEAB7"/>
</linearGradient>
<linearGradient id="paint1_linear_342_730" x1="96.0692" y1="-15.2492" x2="96.0692" y2="94.1636" gradientUnits="userSpaceOnUse">
<stop stop-color="white"/>
<stop offset="1" stop-color="white" stop-opacity="0.13"/>
</linearGradient>
<linearGradient id="paint2_linear_342_730" x1="96.0692" y1="71.9724" x2="96.0692" y2="204.917" gradientUnits="userSpaceOnUse">
<stop stop-color="#492DFF"/>
<stop offset="1" stop-color="#C0DAFE"/>
</linearGradient>
<linearGradient id="paint3_linear_342_730" x1="93.21" y1="45.7464" x2="93.21" y2="158.971" gradientUnits="userSpaceOnUse">
<stop stop-color="white"/>
<stop offset="1" stop-color="white" stop-opacity="0.26"/>
</linearGradient>
<linearGradient id="paint4_linear_342_730" x1="96.0692" y1="91.6862" x2="96.0692" y2="123.9" gradientUnits="userSpaceOnUse">
<stop stop-color="#E7E5FF"/>
<stop offset="1" stop-color="#E0D4FF"/>
</linearGradient>
<linearGradient id="paint5_linear_342_730" x1="96.0372" y1="66.07" x2="96.0372" y2="124.912" gradientUnits="userSpaceOnUse">
<stop stop-color="white"/>
<stop offset="1" stop-color="white" stop-opacity="0.13"/>
</linearGradient>
<linearGradient id="paint6_linear_342_730" x1="71.5035" y1="91.3037" x2="102.898" y2="122.698" gradientUnits="userSpaceOnUse">
<stop stop-color="#492DFF"/>
<stop offset="1" stop-color="#C0DAFE"/>
</linearGradient>
<linearGradient id="paint7_linear_342_730" x1="83.7872" y1="104.541" x2="102.675" y2="123.429" gradientUnits="userSpaceOnUse">
<stop stop-color="white"/>
<stop offset="1" stop-color="white" stop-opacity="0.26"/>
</linearGradient>
</defs>
</svg>
