<?xml version="1.0" encoding="UTF-8"?>
<!DOCTYPE svg PUBLIC "-//W3C//DTD SVG 1.1//EN" "http://www.w3.org/Graphics/SVG/1.1/DTD/svg11.dtd">
<svg xmlns="http://www.w3.org/2000/svg" version="1.1" width="350px" height="350px" style="shape-rendering:geometricPrecision; text-rendering:geometricPrecision; image-rendering:optimizeQuality; fill-rule:evenodd; clip-rule:evenodd" xmlns:xlink="http://www.w3.org/1999/xlink">
<g><path style="opacity:0.992" fill="#39a883" d="M 148.5,-0.5 C 165.833,-0.5 183.167,-0.5 200.5,-0.5C 267.957,11.765 314.791,49.765 341,113.5C 344.714,125.092 347.548,136.758 349.5,148.5C 349.5,165.833 349.5,183.167 349.5,200.5C 339.484,259.039 308.484,302.873 256.5,332C 238.774,340.742 220.107,346.575 200.5,349.5C 183.167,349.5 165.833,349.5 148.5,349.5C 81.0708,337.269 34.2375,299.269 8,235.5C 4.28568,223.908 1.45235,212.242 -0.5,200.5C -0.5,183.167 -0.5,165.833 -0.5,148.5C 9.47127,89.9938 40.4713,46.1604 92.5,17C 110.226,8.25846 128.893,2.42513 148.5,-0.5 Z"/></g>
<g><path style="opacity:1" fill="#fefefe" d="M 96.5,87.5 C 148.5,87.5 200.5,87.5 252.5,87.5C 252.5,99.8333 252.5,112.167 252.5,124.5C 233.167,124.5 213.833,124.5 194.5,124.5C 194.5,133.167 194.5,141.833 194.5,150.5C 194.5,151.167 194.5,151.833 194.5,152.5C 194.5,162.167 194.5,171.833 194.5,181.5C 181.5,181.5 168.5,181.5 155.5,181.5C 155.666,171.828 155.5,162.161 155,152.5C 153,151.5 153,150.5 155,149.5C 155.167,145.333 155.333,141.167 155.5,137C 155.491,132.443 154.825,128.276 153.5,124.5C 134.5,124.5 115.5,124.5 96.5,124.5C 96.5,112.167 96.5,99.8333 96.5,87.5 Z"/></g>
<g><path style="opacity:1" fill="#a2d6c4" d="M 96.5,87.5 C 96.5,99.8333 96.5,112.167 96.5,124.5C 115.5,124.5 134.5,124.5 153.5,124.5C 153.5,124.833 153.5,125.167 153.5,125.5C 134.5,125.5 115.5,125.5 96.5,125.5C 95.1667,112.833 95.1667,100.167 96.5,87.5 Z"/></g>
<g><path style="opacity:1" fill="#a4d6c5" d="M 252.5,87.5 C 253.495,99.989 253.829,112.656 253.5,125.5C 234.167,125.5 214.833,125.5 195.5,125.5C 195.175,133.352 195.508,141.018 196.5,148.5C 198.5,149.167 200.5,149.833 202.5,150.5C 199.833,150.5 197.167,150.5 194.5,150.5C 194.5,141.833 194.5,133.167 194.5,124.5C 213.833,124.5 233.167,124.5 252.5,124.5C 252.5,112.167 252.5,99.8333 252.5,87.5 Z"/></g>
<g><path style="opacity:1" fill="#44ac89" d="M 96.5,125.5 C 115.5,125.5 134.5,125.5 153.5,125.5C 153.826,133.684 153.492,141.684 152.5,149.5C 144.944,149.31 137.611,149.977 130.5,151.5C 110.443,151.881 91.4434,156.381 73.5,165C 72.7476,165.671 72.4142,166.504 72.5,167.5C 68.592,170.997 68.592,174.663 72.5,178.5C 67.6524,176.816 66.3191,173.483 68.5,168.5C 72.0835,161.014 78.0835,157.514 86.5,158C 86.0426,157.586 85.7093,157.086 85.5,156.5C 106.935,149.55 128.935,146.55 151.5,147.5C 151.5,140.5 151.5,133.5 151.5,126.5C 132.992,126.83 114.659,126.497 96.5,125.5 Z"/></g>
<g><path style="opacity:1" fill="#67bb9e" d="M 196.5,148.5 C 207.183,148.864 217.849,149.531 228.5,150.5C 233.526,151.026 238.193,152.359 242.5,154.5C 229.208,152.867 215.875,151.534 202.5,150.5C 200.5,149.833 198.5,149.167 196.5,148.5 Z"/></g>
<g><path style="opacity:1" fill="#b1dccd" d="M 152.5,149.5 C 145.361,150.707 138.028,151.374 130.5,151.5C 137.611,149.977 144.944,149.31 152.5,149.5 Z"/></g>
<g><path style="opacity:1" fill="#daeee7" d="M 153.5,124.5 C 154.825,128.276 155.491,132.443 155.5,137C 155.333,141.167 155.167,145.333 155,149.5C 153,150.5 153,151.5 155,152.5C 155.5,162.161 155.666,171.828 155.5,181.5C 168.5,181.5 181.5,181.5 194.5,181.5C 181.344,182.496 168.01,182.829 154.5,182.5C 154.5,182.167 154.5,181.833 154.5,181.5C 154.666,172.161 154.5,162.827 154,153.5C 152.938,152.903 151.772,152.57 150.5,152.5C 145.332,153.007 140.332,153.673 135.5,154.5C 134.5,154.5 133.5,154.5 132.5,154.5C 128.21,154.198 124.21,154.864 120.5,156.5C 119.167,156.5 117.833,156.5 116.5,156.5C 107.649,157.423 98.982,159.257 90.5,162C 89.944,162.383 89.6107,162.883 89.5,163.5C 87.6854,164.63 85.6854,165.296 83.5,165.5C 84.0906,164.849 84.7573,164.182 85.5,163.5C 84.8333,163.167 84.1667,162.833 83.5,162.5C 79.7254,163.978 76.0588,165.645 72.5,167.5C 72.4142,166.504 72.7476,165.671 73.5,165C 91.4434,156.381 110.443,151.881 130.5,151.5C 138.028,151.374 145.361,150.707 152.5,149.5C 153.492,141.684 153.826,133.684 153.5,125.5C 153.5,125.167 153.5,124.833 153.5,124.5 Z"/></g>
<g><path style="opacity:1" fill="#e3f2ed" d="M 194.5,150.5 C 197.167,150.5 199.833,150.5 202.5,150.5C 215.875,151.534 229.208,152.867 242.5,154.5C 245.94,155.511 249.274,156.511 252.5,157.5C 255.647,158.046 258.647,159.046 261.5,160.5C 260.448,160.351 259.448,160.517 258.5,161C 259.381,161.708 260.047,162.542 260.5,163.5C 248.497,159.645 236.164,157.311 223.5,156.5C 219.119,154.789 214.453,154.123 209.5,154.5C 204.783,152.762 199.783,152.096 194.5,152.5C 194.5,151.833 194.5,151.167 194.5,150.5 Z"/></g>
<g><path style="opacity:1" fill="#83c8b0" d="M 132.5,154.5 C 128.79,156.136 124.79,156.802 120.5,156.5C 124.21,154.864 128.21,154.198 132.5,154.5 Z"/></g>
<g><path style="opacity:1" fill="#54b393" d="M 209.5,154.5 C 214.453,154.123 219.119,154.789 223.5,156.5C 214.848,155.854 206.182,155.521 197.5,155.5C 197.807,164.887 197.473,174.22 196.5,183.5C 182.339,184.826 168.339,184.826 154.5,183.5C 168.167,183.5 181.833,183.5 195.5,183.5C 195.5,173.833 195.5,164.167 195.5,154.5C 200.167,154.5 204.833,154.5 209.5,154.5 Z"/></g>
<g><path style="opacity:1" fill="#9fd4c2" d="M 154.5,181.5 C 153.507,172.682 153.173,163.682 153.5,154.5C 147.5,154.5 141.5,154.5 135.5,154.5C 140.332,153.673 145.332,153.007 150.5,152.5C 151.772,152.57 152.938,152.903 154,153.5C 154.5,162.827 154.666,172.161 154.5,181.5 Z"/></g>
<g><path style="opacity:1" fill="#9cd3c0" d="M 194.5,152.5 C 199.783,152.096 204.783,152.762 209.5,154.5C 204.833,154.5 200.167,154.5 195.5,154.5C 195.5,164.167 195.5,173.833 195.5,183.5C 181.833,183.5 168.167,183.5 154.5,183.5C 154.5,183.167 154.5,182.833 154.5,182.5C 168.01,182.829 181.344,182.496 194.5,181.5C 194.5,171.833 194.5,162.167 194.5,152.5 Z"/></g>
<g><path style="opacity:1" fill="#3ba884" d="M 132.5,154.5 C 133.5,154.5 134.5,154.5 135.5,154.5C 141.5,154.5 147.5,154.5 153.5,154.5C 153.173,163.682 153.507,172.682 154.5,181.5C 154.5,181.833 154.5,182.167 154.5,182.5C 154.5,182.833 154.5,183.167 154.5,183.5C 168.339,184.826 182.339,184.826 196.5,183.5C 197.473,174.22 197.807,164.887 197.5,155.5C 206.182,155.521 214.848,155.854 223.5,156.5C 236.164,157.311 248.497,159.645 260.5,163.5C 262.167,164.833 263.833,166.167 265.5,167.5C 266.39,169.782 266.556,172.115 266,174.5C 264.008,175.328 262.508,176.661 261.5,178.5C 258.103,180.267 254.436,181.267 250.5,181.5C 237.542,183.106 224.875,185.106 212.5,187.5C 209.918,187.025 207.918,187.692 206.5,189.5C 185.833,189.5 165.167,189.5 144.5,189.5C 137.341,188.096 130.008,187.096 122.5,186.5C 119.877,184.735 116.877,184.068 113.5,184.5C 113.5,183.167 113.5,181.833 113.5,180.5C 107.913,180.055 102.246,179.888 96.5,180C 92.3304,178.396 87.9971,177.23 83.5,176.5C 82.1562,174.832 80.8229,173.165 79.5,171.5C 80.3469,169.129 81.6802,167.129 83.5,165.5C 85.6854,165.296 87.6854,164.63 89.5,163.5C 98.5792,161.269 107.579,158.936 116.5,156.5C 117.833,156.5 119.167,156.5 120.5,156.5C 124.79,156.802 128.79,156.136 132.5,154.5 Z"/></g>
<g><path style="opacity:1" fill="#89cab4" d="M 116.5,156.5 C 107.579,158.936 98.5792,161.269 89.5,163.5C 89.6107,162.883 89.944,162.383 90.5,162C 98.982,159.257 107.649,157.423 116.5,156.5 Z"/></g>
<g><path style="opacity:1" fill="#fbfdfd" d="M 261.5,160.5 C 267.725,162.032 273.225,165.032 278,169.5C 278.667,171.833 278.667,174.167 278,176.5C 274.91,179.111 271.744,181.445 268.5,183.5C 265.868,184.751 263.201,185.751 260.5,186.5C 255.255,187.309 250.255,188.642 245.5,190.5C 240.57,191.648 235.57,192.315 230.5,192.5C 221.179,193.111 211.845,193.611 202.5,194C 200.942,194.21 199.609,194.71 198.5,195.5C 196.901,195.232 195.568,195.566 194.5,196.5C 193.502,222.661 193.169,248.995 193.5,275.5C 180.833,275.5 168.167,275.5 155.5,275.5C 155.831,248.995 155.498,222.661 154.5,196.5C 154.167,196.5 153.833,196.5 153.5,196.5C 153.167,196.5 152.833,196.5 152.5,196.5C 145.354,195.384 138.02,194.717 130.5,194.5C 129.5,194.5 128.5,194.5 127.5,194.5C 119.564,191.443 111.231,190.11 102.5,190.5C 101.508,190.672 100.842,190.338 100.5,189.5C 97.4172,187.975 94.0839,186.975 90.5,186.5C 89.0413,186.567 87.7079,186.234 86.5,185.5C 82.9981,182.94 78.9981,181.274 74.5,180.5C 74.1667,179.5 73.5,178.833 72.5,178.5C 68.592,174.663 68.592,170.997 72.5,167.5C 76.0588,165.645 79.7254,163.978 83.5,162.5C 84.1667,162.833 84.8333,163.167 85.5,163.5C 84.7573,164.182 84.0906,164.849 83.5,165.5C 81.6802,167.129 80.3469,169.129 79.5,171.5C 80.8229,173.165 82.1562,174.832 83.5,176.5C 86.4397,178.915 89.773,180.748 93.5,182C 100.495,183.367 107.495,184.533 114.5,185.5C 116.454,187.516 118.954,188.516 122,188.5C 129.481,189.283 136.981,189.617 144.5,189.5C 165.167,189.5 185.833,189.5 206.5,189.5C 217.586,189.619 228.253,188.286 238.5,185.5C 242.626,184.285 246.626,182.952 250.5,181.5C 254.436,181.267 258.103,180.267 261.5,178.5C 267.113,177.267 269.113,173.934 267.5,168.5C 266.817,168.137 266.15,167.804 265.5,167.5C 263.833,166.167 262.167,164.833 260.5,163.5C 260.047,162.542 259.381,161.708 258.5,161C 259.448,160.517 260.448,160.351 261.5,160.5 Z"/></g>
<g><path style="opacity:1" fill="#5fb798" d="M 252.5,157.5 C 259.164,156.592 265.164,158.092 270.5,162C 272.81,162.497 275.143,162.663 277.5,162.5C 277.659,165.155 278.659,167.488 280.5,169.5C 281.487,172.768 281.82,176.102 281.5,179.5C 276.877,180.042 272.543,181.376 268.5,183.5C 271.744,181.445 274.91,179.111 278,176.5C 278.667,174.167 278.667,171.833 278,169.5C 273.225,165.032 267.725,162.032 261.5,160.5C 258.647,159.046 255.647,158.046 252.5,157.5 Z"/></g>
<g><path style="opacity:1" fill="#9bd2bf" d="M 265.5,167.5 C 266.15,167.804 266.817,168.137 267.5,168.5C 269.113,173.934 267.113,177.267 261.5,178.5C 262.508,176.661 264.008,175.328 266,174.5C 266.556,172.115 266.39,169.782 265.5,167.5 Z"/></g>
<g><path style="opacity:1" fill="#54b291" d="M 83.5,176.5 C 87.9971,177.23 92.3304,178.396 96.5,180C 102.246,179.888 107.913,180.055 113.5,180.5C 113.5,181.833 113.5,183.167 113.5,184.5C 116.877,184.068 119.877,184.735 122.5,186.5C 119.833,186.167 117.167,185.833 114.5,185.5C 107.495,184.533 100.495,183.367 93.5,182C 89.773,180.748 86.4397,178.915 83.5,176.5 Z"/></g>
<g><path style="opacity:1" fill="#c3e4d9" d="M 74.5,180.5 C 78.9981,181.274 82.9981,182.94 86.5,185.5C 82.8701,184.359 79.2035,183.192 75.5,182C 74.944,181.617 74.6107,181.117 74.5,180.5 Z"/></g>
<g><path style="opacity:1" fill="#63b99c" d="M 250.5,181.5 C 246.626,182.952 242.626,184.285 238.5,185.5C 229.87,186.559 221.203,187.225 212.5,187.5C 224.875,185.106 237.542,183.106 250.5,181.5 Z"/></g>
<g><path style="opacity:1" fill="#cce8de" d="M 114.5,185.5 C 117.167,185.833 119.833,186.167 122.5,186.5C 130.008,187.096 137.341,188.096 144.5,189.5C 136.981,189.617 129.481,189.283 122,188.5C 118.954,188.516 116.454,187.516 114.5,185.5 Z"/></g>
<g><path style="opacity:1" fill="#d6ece4" d="M 238.5,185.5 C 228.253,188.286 217.586,189.619 206.5,189.5C 207.918,187.692 209.918,187.025 212.5,187.5C 221.203,187.225 229.87,186.559 238.5,185.5 Z"/></g>
<g><path style="opacity:1" fill="#b8dfd2" d="M 90.5,186.5 C 94.0839,186.975 97.4172,187.975 100.5,189.5C 96.5724,190.024 93.239,189.024 90.5,186.5 Z"/></g>
<g><path style="opacity:1" fill="#a2d6c4" d="M 260.5,186.5 C 255.931,188.995 250.931,190.328 245.5,190.5C 250.255,188.642 255.255,187.309 260.5,186.5 Z"/></g>
<g><path style="opacity:1" fill="#b9e0d3" d="M 102.5,190.5 C 111.231,190.11 119.564,191.443 127.5,194.5C 118.924,193.913 110.59,192.58 102.5,190.5 Z"/></g>
<g><path style="opacity:1" fill="#d5ede5" d="M 230.5,192.5 C 225.226,193.858 219.893,194.858 214.5,195.5C 211.5,195.5 208.5,195.5 205.5,195.5C 203.167,195.5 200.833,195.5 198.5,195.5C 199.609,194.71 200.942,194.21 202.5,194C 211.845,193.611 221.179,193.111 230.5,192.5 Z"/></g>
<g><path style="opacity:1" fill="#a1d5c4" d="M 130.5,194.5 C 138.02,194.717 145.354,195.384 152.5,196.5C 144.921,196.906 137.588,196.239 130.5,194.5 Z"/></g>
<g><path style="opacity:1" fill="#e8f4f0" d="M 154.5,196.5 C 155.498,222.661 155.831,248.995 155.5,275.5C 168.167,275.5 180.833,275.5 193.5,275.5C 193.169,248.995 193.502,222.661 194.5,196.5C 194.5,223.167 194.5,249.833 194.5,276.5C 181.167,276.5 167.833,276.5 154.5,276.5C 154.5,249.833 154.5,223.167 154.5,196.5 Z"/></g>
<g><path style="opacity:1" fill="#a4d6c6" d="M 198.5,195.5 C 200.833,195.5 203.167,195.5 205.5,195.5C 202.375,196.479 199.042,196.813 195.5,196.5C 195.5,223.167 195.5,249.833 195.5,276.5C 195.167,276.5 194.833,276.5 194.5,276.5C 194.5,249.833 194.5,223.167 194.5,196.5C 195.568,195.566 196.901,195.232 198.5,195.5 Z"/></g>
<g><path style="opacity:1" fill="#67bb9f" d="M 205.5,195.5 C 208.5,195.5 211.5,195.5 214.5,195.5C 208.762,197.228 202.762,197.895 196.5,197.5C 196.831,224.005 196.498,250.339 195.5,276.5C 195.5,249.833 195.5,223.167 195.5,196.5C 199.042,196.813 202.375,196.479 205.5,195.5 Z"/></g>
<g><path style="opacity:1" fill="#94cfbb" d="M 153.5,196.5 C 153.833,196.5 154.167,196.5 154.5,196.5C 154.5,223.167 154.5,249.833 154.5,276.5C 167.833,276.5 181.167,276.5 194.5,276.5C 194.833,276.5 195.167,276.5 195.5,276.5C 181.873,278.482 167.873,279.149 153.5,278.5C 153.5,251.167 153.5,223.833 153.5,196.5 Z"/></g>
</svg>
